<?xml version="1.0" standalone="no"?><!DOCTYPE svg PUBLIC "-//W3C//DTD SVG 1.1//EN" "http://www.w3.org/Graphics/SVG/1.1/DTD/svg11.dtd"><svg t="1696748162816" class="icon" viewBox="0 0 1024 1024" version="1.1" xmlns="http://www.w3.org/2000/svg" p-id="2606" xmlns:xlink="http://www.w3.org/1999/xlink" width="200" height="200"><path d="M15.626031 464.896908c0-247.942484 200.038391-449.004877 445.89687-449.004877v449.004877H15.626031z" fill="#FCC062" p-id="2607"></path><path d="M559.451093 111.932219c245.85848 0 448.400876 200.664392 448.400875 448.194875s-200.560392 448.500876-448.090875 448.500876S111.668218 808.681579 111.668218 560.739095h447.780875V111.932219h0.002z" fill="#FCC062" p-id="2608"></path><path d="M80.088156 464.896908c0-212.522415 170.994334-384.544751 383.516749-384.544751v384.544751H80.088156z" fill="#C1272D" p-id="2609"></path><path d="M127.036248 464.896908c0-187.520366 149.050291-337.596659 336.570657-337.596659v337.596659H127.036248z" fill="#FBB03B" p-id="2610"></path><path d="M559.451093 175.960344c212.522415 0 384.374751 171.998336 384.37475 384.16675S771.931508 944.603845 559.761093 944.603845 175.698343 773.26151 175.698343 560.739095h383.75275V175.960344z" fill="#C1272D" p-id="2611"></path><path d="M463.606905 175.322342c-158.350309 0-288.548564 129.140252-288.548563 289.574566h128.11625v15.19803c0 17.680035 14.614029 32.014063 32.296063 32.014062 17.680035 0 32.296063-14.332028 32.296063-32.014062v-15.19803h95.844187V175.322342z" fill="#F7931E" p-id="2612"></path><path d="M559.451093 223.980437c187.520366 0 336.354657 150.496294 336.354657 336.146657S745.409456 896.579751 559.761093 896.579751s-336.044656-150.406294-336.044656-335.842656h335.732656V223.980437z" fill="#FBB03B" p-id="2613"></path><path d="M207.710406 368.038719m-32.014063 0a32.014063 32.014063 0 1 0 64.028125 0 32.014063 32.014063 0 1 0-64.028125 0Z" fill="#FF1D25" p-id="2614"></path><path d="M559.451093 272.002531c158.350309 0 288.332563 128.998252 288.332563 288.126563S718.889404 848.559657 559.761093 848.559657s-288.022563-129.470253-288.022562-287.820562h287.712562V272.002531z" fill="#F7931E" p-id="2615"></path><path d="M783.957531 432.064844m-32.014062 0a32.014063 32.014063 0 1 0 64.028125 0 32.014063 32.014063 0 1 0-64.028125 0Z" fill="#FF1D25" p-id="2616"></path><path d="M639.90125 688.175344m-32.014063 0a32.014063 32.014063 0 1 0 64.028125 0 32.014063 32.014063 0 1 0-64.028125 0Z" fill="#FF1D25" p-id="2617"></path><path d="M447.818875 832.253625m-32.014063 0a32.014063 32.014063 0 1 0 64.028125 0 32.014063 32.014063 0 1 0-64.028125 0Z" fill="#FF1D25" p-id="2618"></path><path d="M335.764656 656.173282m-32.014063 0a32.014063 32.014063 0 1 0 64.028125 0 32.014063 32.014063 0 1 0-64.028125 0Z" fill="#FF1D25" p-id="2619"></path><path d="M351.766687 143.952281m-32.014062 0a32.014063 32.014063 0 1 0 64.028125 0 32.014063 32.014063 0 1 0-64.028125 0Z" fill="#FF1D25" p-id="2620"></path><path d="M831.983625 768.2255m-32.014063 0a32.014063 32.014063 0 1 0 64.028125 0 32.014063 32.014063 0 1 0-64.028125 0Z" fill="#FF1D25" p-id="2621"></path><path d="M333.02865 336.018656l-45.272088-45.274088 45.272088-45.272089 45.274089 45.272089zM669.181307 378.540739l-45.274088-45.272088 45.274088-45.272089 45.272088 45.272089zM317.020619 848.237657l-45.272088-45.272089 45.272088-45.272088 45.272089 45.272088zM674.651318 864.277688l-45.272089-45.272088 45.272089-45.274089 45.274088 45.274089z" fill="#009245" p-id="2622"></path><path d="M593.95916 464.088906m-32.014062 0a32.014063 32.014063 0 1 0 64.028125 0 32.014063 32.014063 0 1 0-64.028125 0Z" fill="#FF1D25" p-id="2623"></path><path d="M207.710406 415.684812c-26.270051 0-47.640093-21.370042-47.640093-47.640093s21.370042-47.640093 47.640093-47.640093 47.640093 21.370042 47.640093 47.640093c0 26.268051-21.370042 47.640093-47.640093 47.640093z m0-64.028125c-9.036018 0-16.388032 7.350014-16.388032 16.388032 0 9.036018 7.350014 16.388032 16.388032 16.388032 9.036018 0 16.388032-7.350014 16.388032-16.388032-0.002-9.036018-7.352014-16.388032-16.388032-16.388032zM783.961531 479.712937c-26.268051 0-47.638093-21.370042-47.638093-47.640093s21.370042-47.640093 47.638093-47.640093c26.270051 0 47.640093 21.370042 47.640093 47.640093 0 26.268051-21.370042 47.640093-47.640093 47.640093z m0-64.028125c-9.034018 0-16.386032 7.350014-16.386032 16.388032 0 9.036018 7.350014 16.388032 16.386032 16.388032s16.388032-7.350014 16.388032-16.388032c0-9.038018-7.352014-16.388032-16.388032-16.388032zM639.89925 735.825437c-26.270051 0-47.640093-21.370042-47.640093-47.640093s21.370042-47.640093 47.640093-47.640093 47.640093 21.370042 47.640093 47.640093-21.368042 47.640093-47.640093 47.640093z m0-64.028125c-9.036018 0-16.388032 7.350014-16.388032 16.388032 0 9.036018 7.350014 16.388032 16.388032 16.388032 9.036018 0 16.388032-7.350014 16.388032-16.388032-0.002-9.038018-7.352014-16.388032-16.388032-16.388032zM447.816875 879.887719c-26.270051 0-47.640093-21.370042-47.640093-47.640094s21.370042-47.640093 47.640093-47.640093 47.640093 21.370042 47.640093 47.640093-21.372042 47.640093-47.640093 47.640094z m0-64.028126c-9.036018 0-16.388032 7.350014-16.388032 16.388032s7.350014 16.388032 16.388032 16.388032 16.388032-7.350014 16.388032-16.388032-7.352014-16.388032-16.388032-16.388032zM335.766656 703.811375c-26.270051 0-47.640093-21.370042-47.640093-47.640093s21.372042-47.640093 47.640093-47.640093 47.638093 21.370042 47.638093 47.640093-21.368042 47.640093-47.638093 47.640093z m0-64.028125c-9.036018 0-16.388032 7.350014-16.388032 16.388032 0 9.036018 7.350014 16.388032 16.388032 16.388032 9.034018 0 16.386032-7.350014 16.386032-16.388032 0.002-9.038018-7.352014-16.388032-16.386032-16.388032z" fill="" p-id="2624"></path><path d="M383.78675 417.528815l-33.212065-16.606032-41.880082 13.960027-9.884019-29.650058 54.160105-18.054035 30.816061 15.40803 25.026048-12.514024 13.978028 27.956054zM479.828937 753.677472l-33.210065-16.608032-41.882081 13.960027-9.88402-29.650058 54.162106-18.052035 30.81406 15.40603 25.026049-12.512025 13.980027 27.954055zM767.9535 641.627253l-33.210065-16.606032-41.880082 13.960027-9.884019-29.652058 54.160106-18.054035 30.81406 15.40803 25.026049-12.510025 13.978027 27.952055z" fill="#FFFFFF" p-id="2625"></path><path d="M333.02065 358.130699l-67.374131-67.374131 67.374131-67.374132 67.374132 67.374132-67.374132 67.374131z m-23.176045-67.374131l23.176045 23.176045 23.176046-23.176045-23.176046-23.176045-23.176045 23.176045zM669.167307 400.658783l-67.374132-67.374132 67.374132-67.374132 67.374132 67.374132-67.374132 67.374132z m-23.176045-67.374132l23.176045 23.176045 23.176045-23.176045-23.176045-23.176045-23.176045 23.176045zM674.661318 886.359731l-67.374132-67.374131 67.374132-67.374132 67.374131 67.374132-67.374131 67.374131z m-23.176046-67.374131l23.176046 23.176045 23.176045-23.176045-23.176045-23.176046-23.176046 23.176046zM240.67047 208.624407h31.254061v31.254062h-31.254061zM399.020779 223.210436h33.336065v31.254061H399.020779z" fill="" p-id="2626"></path><path d="M463.822906 0.264001c-123.892242 0-240.366469 48.246094-327.972641 135.850265C48.244094 223.718437 0 340.194664 0 464.084906v15.626031h279.744546a8.390016 8.390016 0 0 1 8.382017 8.384016c0 21.856043 17.782035 39.638077 39.636077 39.638078h16.008031c21.854043 0 39.636077-17.780035 39.636078-39.638078a8.394016 8.394016 0 0 1 8.384016-8.384016h87.658171V0.264001h-15.62603z m-15.628031 31.532061v32.822064C239.956469 72.544142 72.792142 240.308469 64.390126 448.460876H31.532062C39.594077 222.324434 222.060434 39.858078 448.194875 31.796062zM368.160719 143.946281c0 9.036018-7.350014 16.388032-16.388032 16.388032-9.034018 0-16.386032-7.350014-16.386032-16.388032s7.350014-16.388032 16.386032-16.388032 16.388032 7.352014 16.388032 16.388032z m23.630046 304.512595c-21.856043 0-39.638077 17.782035-39.638077 39.638077a8.390016 8.390016 0 0 1-8.382017 8.382017h-16.008031a8.390016 8.390016 0 0 1-8.382016-8.384017c0-21.856043-17.780035-39.638077-39.636078-39.638077h-7.824015v-14.816029h-31.254061v14.816029h-145.000283c2.296004-52.264102 15.48203-101.682199 37.306073-146.080285h26.436051v-31.254061h-9.146018c37.300073-60.344118 91.412179-109.136213 155.590304-139.828274a47.566093 47.566093 0 0 0-1.716003 12.648025c0 26.270051 21.370042 47.640093 47.638093 47.640093 26.270051 0 47.640093-21.370042 47.640093-47.640093 0-15.896031-7.832015-29.986059-19.832039-38.646075a365.360714 365.360714 0 0 1 68.614134-9.408019v352.564689h-56.40411v0.006zM784.479532 319.052623h31.254061v31.254061h-31.254061zM671.967312 494.072965h31.254061v31.254061h-31.254061zM863.653687 433.648847h33.336065v31.254061h-33.336065zM607.377186 591.999156h33.336065v31.254061h-33.336065zM830.317622 642.005254h33.336065v31.254061h-33.336065zM751.141467 671.173311h33.336065v31.254061H751.141467z" fill="" p-id="2627"></path><path d="M719.889406 689.925348h31.254061v31.254061h-31.254061zM607.377186 881.613722h33.336065v31.254061h-33.336065zM432.358844 591.999156h31.254061v31.254061h-31.254061zM494.864967 752.43347H528.201032v31.254061h-33.336065zM207.334405 591.999156h33.336065v31.254061h-33.336065z" fill="" p-id="2628"></path><path d="M560.493095 96.106188h-15.626031v447.964875H96.902189v15.62603c0 124.048242 47.844093 240.61847 135.502265 328.236641 87.614171 87.574171 203.686398 135.802265 327.61864 135.802265 123.910242 0 240.41247-48.256094 328.042641-135.786265 87.660171-87.560171 135.934265-204.048399 135.934265-327.92064C1024.002 304.276594 816.071594 96.106188 560.493095 96.106188z m-15.628031 479.218936v66.67413h-16.668032v31.254061h16.668032v206.272403h31.254061v-304.200594h304.198594v-31.254061h-143.76428v-14.584029h-33.336066v14.584029H576.121125v-35.82407a47.376093 47.376093 0 0 0 17.842035 3.480006c26.270051 0 47.640093-21.370042 47.640093-47.640093s-21.370042-47.640093-47.640093-47.640093c-6.306012 0-12.328024 1.244002-17.842035 3.480007v-165.468323h14.584029v-31.254061h-14.584029V191.980375c47.200092 2.096004 92.03818 13.062026 132.94026 31.226061h-20.43004v31.254061h31.254061v-26.240051c118.854232 57.480112 201.930394 176.822345 207.950406 315.854617h-30.84806v31.254061h30.88206c-2.558005 63.490124-21.250042 122.89624-52.056101 174.23234-7.274014-17.020033-24.180047-28.978057-43.830086-28.978057-26.270051 0-47.640093 21.370042-47.640093 47.640093 0 24.070047 17.944035 44.012086 41.15608 47.188093-63.550124 66.280129-151.544296 108.920213-249.378487 113.192221v-30.32406h-31.254061v30.37006a369.676722 369.676722 0 0 1-16.668032-1.052002v-14.732029h-33.336065v10.33402c-59.312116-10.644021-113.744222-35.58607-159.638312-71.050139l49.166096-49.166096-67.374132-67.374131-49.134096 49.134096a371.062725 371.062725 0 0 1-23.546046-34.398067h10.918022v-31.254062h-27.850055a364.628712 364.628712 0 0 1-35.76207-143.76428h353.22469v-0.002z m32.708064-111.240218c0-9.036018 7.350014-16.388032 16.388032-16.388032 9.036018 0 16.388032 7.350014 16.388032 16.388032s-7.350014 16.388032-16.388032 16.388032c-9.036018 0-16.388032-7.352014-16.388032-16.388032z m270.798529 304.134594c0 9.036018-7.350014 16.388032-16.388032 16.388032-9.036018 0-16.388032-7.350014-16.388032-16.388032s7.350014-16.388032 16.388032-16.388032c9.036018 0.002 16.388032 7.352014 16.388032 16.388032z m-554.535083 34.760068l23.176045-23.176045 23.176045 23.176045-23.176045 23.176046-23.176045-23.176046z m572.143117 62.906123c-78.040152 77.950152-180.636353 122.428239-290.350567 126.288247l-0.136-22.212044-31.254061 0.192001 0.136 22.018043c-109.714214-3.874008-212.292415-48.370094-290.304567-126.344247-78.058152-78.022152-122.63024-180.672353-126.498247-290.506567h32.790064c7.692015 214.078418 183.930359 384.902752 399.50078 384.902751 220.448431 0 399.59078-179.500351 399.590781-399.948781 0-214.87042-170.206332-390.810763-383.334749-399.57278V127.83825c225.800441 8.080016 408.018797 190.322372 416.302813 416.232813h-14.176027v31.254061h14.212027c-3.772007 109.814214-48.326094 212.498415-126.478247 290.560567z" fill="" p-id="2629"></path><path d="M912.019781 529.577034l-33.214065-16.606032-41.880081 13.960027-9.88402-29.648058 54.162106-18.054035 30.81606 15.40803 25.022049-12.514024 13.980027 27.954054z" fill="#FFFFFF" p-id="2630"></path></svg>